# xmcd
#
# Track frame offsets: 
#        150
#        11386
#        22077
#        34227
#        45516
#        56868
#        67662
#        78734
#        89258
#        99852
#        110483
#        121096
#        133663
#        143738
#        154802
#        165530
#        176075
#        187469
#        200073
#        209844
#        221942
#        234106
#        245383
#        256417
#        269345
#        278324
#        287822
#        297766
#        308736
#        317741
#
# Disc length: 4396 seconds
#
# Revision: 0
# Processed by: cddbd v1.5.2PL0 Copyright (c) Steve Scherf et al.
# Submitted via: ExactAudioCopy v1.0b4
#
DISCID=bc112a1e
DTITLE=Piano Red aka Dr Feelgood and The Interns - Rockin' With Red
DYEAR=2018
DGENRE=Blues
TTITLE0=Rockin' With Red
TTITLE1=Red's Boogie
TTITLE2=The Working Yoyo
TTITLE3=My Girl Jo
TTITLE4=Let's Have A Goodtime Tonight
TTITLE5=Diggin' The Boogie
TTITLE6=It Makes No Difference Now
TTITLE7=Hey Good Lookin'
TTITLE8=Just Right Boogie
TTITLE9=Jumpin' The Boogie
TTITLE10=Layin' The Boogie
TTITLE11=Baby What's Wrong
TTITLE12=Bouncin' With Red
TTITLE13=Count The Days I'm Gone
TTITLE14=The Sales Tax Boogie
TTITLE15=She Walks Right In
TTITLE16=Voo Doopee Doo
TTITLE17=Daybreak
TTITLE18=I'm Gonna Rock Some More
TTITLE19=Everybody's Boogie
TTITLE20=Your Mouth Got A Hole In It
TTITLE21=Decatur Street Boogie
TTITLE22=Right And Ready
TTITLE23=Taxi, Taxi, 6963
TTITLE24=She Knocks Me Out
TTITLE25=Chitlin' Hop
TTITLE26=Big Rock Joe From Kokomo
TTITLE27=Decatur Street Blues
TTITLE28=Jump Man Jump
TTITLE29=Pay It No Mind
EXTD=
EXTT0=
EXTT1=
EXTT2=
EXTT3=
EXTT4=
EXTT5=
EXTT6=
EXTT7=
EXTT8=
EXTT9=
EXTT10=
EXTT11=
EXTT12=
EXTT13=
EXTT14=
EXTT15=
EXTT16=
EXTT17=
EXTT18=
EXTT19=
EXTT20=
EXTT21=
EXTT22=
EXTT23=
EXTT24=
EXTT25=
EXTT26=
EXTT27=
EXTT28=
EXTT29=
PLAYORDER=
